<svg id="visual" viewBox="0 0 960 540" width="1000" height="1000" xmlns="http://www.w3.org/2000/svg" xmlns:xlink="http://www.w3.org/1999/xlink" version="1.1"><path d="M0 39L22.8 39C45.7 39 91.3 39 137 38C182.7 37 228.3 35 274 36.8C319.7 38.7 365.3 44.3 411.2 48C457 51.7 503 53.3 548.8 54.2C594.7 55 640.3 55 686 54.2C731.7 53.3 777.3 51.7 823 48C868.7 44.3 914.3 38.7 937.2 35.8L960 33L960 0L937.2 0C914.3 0 868.7 0 823 0C777.3 0 731.7 0 686 0C640.3 0 594.7 0 548.8 0C503 0 457 0 411.2 0C365.3 0 319.7 0 274 0C228.3 0 182.7 0 137 0C91.3 0 45.7 0 22.8 0L0 0Z" fill="#9ed2c6"></path><path d="M0 163L22.8 157.7C45.7 152.3 91.3 141.7 137 136.3C182.7 131 228.3 131 274 138.2C319.7 145.3 365.3 159.7 411.2 163.2C457 166.7 503 159.3 548.8 165.7C594.7 172 640.3 192 686 204.7C731.7 217.3 777.3 222.7 823 215.3C868.7 208 914.3 188 937.2 178L960 168L960 31L937.2 33.8C914.3 36.7 868.7 42.3 823 46C777.3 49.7 731.7 51.3 686 52.2C640.3 53 594.7 53 548.8 52.2C503 51.3 457 49.7 411.2 46C365.3 42.3 319.7 36.7 274 34.8C228.3 33 182.7 35 137 36C91.3 37 45.7 37 22.8 37L0 37Z" fill="#93cec3"></path><path d="M0 217L22.8 210.7C45.7 204.3 91.3 191.7 137 183.5C182.7 175.3 228.3 171.7 274 176.2C319.7 180.7 365.3 193.3 411.2 196.2C457 199 503 192 548.8 198.3C594.7 204.7 640.3 224.3 686 242.3C731.7 260.3 777.3 276.7 823 273C868.7 269.3 914.3 245.7 937.2 233.8L960 222L960 166L937.2 176C914.3 186 868.7 206 823 213.3C777.3 220.7 731.7 215.3 686 202.7C640.3 190 594.7 170 548.8 163.7C503 157.3 457 164.7 411.2 161.2C365.3 157.7 319.7 143.3 274 136.2C228.3 129 182.7 129 137 134.3C91.3 139.7 45.7 150.3 22.8 155.7L0 161Z" fill="#88cac0"></path><path d="M0 244L22.8 242.2C45.7 240.3 91.3 236.7 137 229.5C182.7 222.3 228.3 211.7 274 216.2C319.7 220.7 365.3 240.3 411.2 245.7C457 251 503 242 548.8 243.8C594.7 245.7 640.3 258.3 686 277.3C731.7 296.3 777.3 321.7 823 322.5C868.7 323.3 914.3 299.7 937.2 287.8L960 276L960 220L937.2 231.8C914.3 243.7 868.7 267.3 823 271C777.3 274.7 731.7 258.3 686 240.3C640.3 222.3 594.7 202.7 548.8 196.3C503 190 457 197 411.2 194.2C365.3 191.3 319.7 178.7 274 174.2C228.3 169.7 182.7 173.3 137 181.5C91.3 189.7 45.7 202.3 22.8 208.7L0 215Z" fill="#7cc6be"></path><path d="M0 320L22.8 317.2C45.7 314.3 91.3 308.7 137 301.3C182.7 294 228.3 285 274 292.3C319.7 299.7 365.3 323.3 411.2 327C457 330.7 503 314.3 548.8 315.2C594.7 316 640.3 334 686 348.3C731.7 362.7 777.3 373.3 823 368.8C868.7 364.3 914.3 344.7 937.2 334.8L960 325L960 274L937.2 285.8C914.3 297.7 868.7 321.3 823 320.5C777.3 319.7 731.7 294.3 686 275.3C640.3 256.3 594.7 243.7 548.8 241.8C503 240 457 249 411.2 243.7C365.3 238.3 319.7 218.7 274 214.2C228.3 209.7 182.7 220.3 137 227.5C91.3 234.7 45.7 238.3 22.8 240.2L0 242Z" fill="#70c2bc"></path><path d="M0 460L22.8 461.8C45.7 463.7 91.3 467.3 137 469.2C182.7 471 228.3 471 274 473.7C319.7 476.3 365.3 481.7 411.2 484.3C457 487 503 487 548.8 484.3C594.7 481.7 640.3 476.3 686 476.3C731.7 476.3 777.3 481.7 823 475.3C868.7 469 914.3 451 937.2 442L960 433L960 323L937.2 332.8C914.3 342.7 868.7 362.3 823 366.8C777.3 371.3 731.7 360.7 686 346.3C640.3 332 594.7 314 548.8 313.2C503 312.3 457 328.7 411.2 325C365.3 321.3 319.7 297.7 274 290.3C228.3 283 182.7 292 137 299.3C91.3 306.7 45.7 312.3 22.8 315.2L0 318Z" fill="#63beba"></path><path d="M0 541L22.8 541C45.7 541 91.3 541 137 541C182.7 541 228.3 541 274 541C319.7 541 365.3 541 411.2 541C457 541 503 541 548.8 541C594.7 541 640.3 541 686 541C731.7 541 777.3 541 823 541C868.7 541 914.3 541 937.2 541L960 541L960 431L937.2 440C914.3 449 868.7 467 823 473.3C777.3 479.7 731.7 474.3 686 474.3C640.3 474.3 594.7 479.7 548.8 482.3C503 485 457 485 411.2 482.3C365.3 479.7 319.7 474.3 274 471.7C228.3 469 182.7 469 137 467.2C91.3 465.3 45.7 461.7 22.8 459.8L0 458Z" fill="#54bab9"></path></svg>